# AST/ASF file generated using VICON BodyLanguage
# -----------------------------------------------
:version 1.10
:name VICON
:units
  mass 1.0
  length 0.45
  angle deg
:documentation
   .ast/.asf automatically generated from VICON data using
   VICON BodyBuilder and BodyLanguage model FoxedUp or BRILLIANT.MOD
:root
   order TX TY TZ RX RY RZ
   axis XYZ
   position 0 0 0  
   orientation 0 0 0 
:bonedata
  begin
     id 1 
     name lhipjoint
     direction 0.62366 -0.717238 0.310833 
     length 2.53602 
     axis 0 0 0  XYZ
  end
  begin
     id 2 
     name lfemur
     direction 0.34202 -0.939693 0  
     length 7.40817  
     axis 0 0 20  XYZ
    dof rx ry rz
    limits (-160.0 20.0)
           (-70.0 70.0)
           (-60.0 70.0)
  end
  begin
     id 3 
     name ltibia
     direction 0.34202 -0.939693 0   
     length 7.7045   
     axis 0 0 20   XYZ
    dof rx
    limits (-10.0 170.0)
  end
  begin
     id 4 
     name lfoot
     direction 0.0673888 -0.185149 0.980397   
     length 2.09456   
     axis -90 7.62852e-016 20   XYZ
    dof rx rz
    limits (-45.0 90.0)
           (-70.0 20.0)
  end
  begin
     id 5 
     name ltoes
     direction 1.53575e-011 -4.21994e-011 1   
     length 1.05543   
     axis -90 7.62852e-016 20   XYZ
    dof rx
    limits (-90.0 20.0)
  end
  begin
     id 6 
     name rhipjoint
     direction -0.489018 -0.800347 0.346851   
     length 2.27268  
     axis 0 0 0  XYZ 
  end
  begin
     id 7 
     name rfemur
     direction -0.34202 -0.939693 0   
     length 7.55487   
     axis 0 0 -20   XYZ
    dof rx ry rz
    limits (-160.0 20.0)
           (-70.0 70.0)
           (-70.0 60.0)
  end
  begin
     id 8 
     name rtibia
     direction -0.34202 -0.939693 0   
     length 7.78969   
     axis 0 0 -20   XYZ
    dof rx
    limits (-10.0 170.0)
 end
 begin
     id 9 
     name rfoot
     direction -0.0859318 -0.236096 0.967923   
     length 2.19143  
     axis -90 -7.62852e-016 -20   XYZ
    dof rx rz
    limits (-45.0 90.0)
           (-20.0 70.0)
  end
  begin
     id 10 
     name rtoes
     direction -1.53538e-011 -4.21989e-011 1   
     length 1.09845   
     axis -90 -7.62852e-016 -20   XYZ
    dof rx
    limits (-90.0 20.0)
  end
  begin
     id 11 
     name lowerback
     direction -0.00762546 0.998978 -0.0445553   
     length 1.98161   
     axis 0 0 0   XYZ
    dof rx ry rz
    limits (-20.0 45.0)
           (-30.0 30.0)
           (-30.0 30.0)
  end
  begin
     id 12 
     name upperback
     direction 0.0422361 0.998867 -0.0219156   
     length 1.97558   
     axis 0 0 0   XYZ
    dof rx ry rz
    limits (-20.0 45.0)
           (-30.0 30.0)
           (-30.0 30.0)
  end
  begin
     id 13 
     name thorax
     direction 0.0442465 0.999021 7.47603e-005   
     length 1.97799   
     axis 0 0 0   XYZ
    dof rx ry rz
    limits (-20.0 45.0)
           (-30.0 30.0)
           (-30.0 30.0)
  end
  begin
     id 14 
     name lowerneck
     direction 0.00312169 0.984641 0.174564   
     length 1.78995   
     axis 0 0 0   XYZ
    dof rx ry rz
    limits (-20.0 45.0)
           (-30.0 30.0)
           (-30.0 30.0)
  end
  begin
     id 15 
     name upperneck
     direction -0.0383028 0.985255 -0.166749   
     length 1.83053   
     axis 0 0 0   XYZ
    dof rx ry rz
    limits (-20.0 45.0)
           (-30.0 30.0)
           (-30.0 30.0)
  end
  begin
     id 16
     name head
     direction -0.0129546 0.997059 -0.0755386  
     length 1.84088  
     axis 0 0 0   XYZ
    dof rx ry rz
    limits (-20.0 45.0)
           (-30.0 30.0)
           (-30.0 30.0)
  end
  begin
     id 17 
     name lclavicle
     direction 0.912857 0.370519 -0.171488  
     length 3.51279  
     axis 0 0 0   XYZ
    dof ry rz
    limits (-20.0 10.0)
           (0.0 20.0)
  end
  begin
     id 18 
     name lhumerus
     direction 1 -4.48962e-011 3.64361e-027   
     length 4.95663   
     axis 180 -30 -90   XYZ
    dof rx ry rz
    limits (-60.0 90.0)
           (-90.0 90.0)
           (-90.0 90.0)
  end
  begin
     id 19
     name lradius
     direction 1 -4.48974e-011 5.97202e-027   
     length 3.38177   
     axis 180 -30 -90   XYZ
    dof rx
    limits (-10.0 170.0)
  end
  begin
     id 20
     name lwrist
     direction 1 -4.4896e-011 9.83288e-027   
     length 1.69088   
     axis -9.31221e-015 90 90   XYZ
    dof ry
    limits (-180.0 0.0)
 end
  begin
     id 21 
     name lhand
     direction 1 -4.4902e-011 1.96551e-026   
     length 0.662909   
     axis -1.25475e-014 90 90   XYZ
    dof rx rz
    limits (-90.0 90.0)
           (-45.0 45.0)
  end
  begin
     id 22 
     name lfingers
     direction 1 -4.48971e-011 3.93277e-026   
     length 0.534454   
     axis -2.50945e-014 90 90   XYZ
    dof rx
    limits (0.0 90.0)
  end
  begin
     id 23
     name lthumb
     direction 0.707107 -6.34933e-011 0.707107   
     length 0.767373   
     axis -90 45 -4.80359e-014   XYZ
    dof rx rz
    limits (-45.0 45.0)
           (-45.0 45.0)
  end
  begin
     id 24 
     name rclavicle
     direction -0.900919 0.395364 -0.178976   
     length 3.40627  
     axis 0 0 0   XYZ 
    dof ry rz
    limits (-10.0 20.0)
           (-20.0 0.0)
  end
  begin
     id 25 
     name rhumerus
     direction -1 -4.48969e-011 1.03875e-027  
     length 5.08365   
     axis 180 30 90   XYZ
    dof rx ry rz
    limits (-90.0 60.0)
           (-90.0 90.0)
           (-90.0 90.0)
  end
  begin
     id 26 
     name rradius
     direction -1 -4.48951e-011 5.02733e-027   
     length 3.35984   
     axis 180 30 90   XYZ
    dof rx
    limits (-10.0 170.0)
  end
  begin
     id 27 
     name rwrist
     direction -1 -4.49011e-011 9.82828e-027   
     length 1.67992   
     axis -9.31221e-015 -90 -90   XYZ
    dof ry
    limits (-180.0 0.0)
  end
  begin
     id 28
     name rhand
     direction -1 -4.48894e-011 1.96774e-026   
     length 0.820764   
     axis -1.25475e-014 -90 -90   XYZ
    dof rx rz
    limits (-90.0 90.0)
           (-45.0 45.0)
  end
  begin
     id 29
     name rfingers
     direction -1 -4.49095e-011 3.92833e-026   
     length 0.661721   
     axis -2.50945e-014 -90 -90   XYZ
    dof rx
    limits (0.0 90.0)
  end
  begin
     id 30
     name rthumb
     direction -0.707107 -6.34881e-011 0.707107   
     length 0.950103   
     axis -90 -45 4.80359e-014   XYZ
    dof rx rz
    limits (-45.0 45.0)
           (-45.0 45.0)
  end
:hierarchy
  begin
    root lhipjoint rhipjoint lowerback
    lhipjoint lfemur
    lfemur ltibia
    ltibia lfoot
    lfoot ltoes
    rhipjoint rfemur
    rfemur rtibia
    rtibia rfoot
    rfoot rtoes
    lowerback upperback
    upperback thorax
    thorax lowerneck lclavicle rclavicle
    lowerneck upperneck
    upperneck head
    lclavicle lhumerus
    lhumerus lradius
    lradius lwrist
    lwrist lhand lthumb
    lhand lfingers
    rclavicle rhumerus
    rhumerus rradius
    rradius rwrist
    rwrist rhand rthumb
    rhand rfingers
  end

#!OML:ASF I:\golf\golf\golf 2\Subject 1\2002-09-07\Subject1.ASF
:FULLY-SPECIFIED
:DEGREES
34
root -7.20155 17.7906 0.335777 -66.0344 88.6875 -80.9631
lowerback 2.59703 1.86242 -3.24642
upperback 3.17336 2.48468 3.74467
thorax 1.51328 1.1766 5.66625
lowerneck -15.3894 -0.790279 1.61915
upperneck 36.9952 1.53376 -4.3431
head 15.6859 0.75139 -1.7455
rclavicle 5.64548e-014 4.05521e-014
rhumerus -6.11822 -1.94429 -101.977
rradius 21.3671
rwrist -36.1871
rhand -14.7355 -6.12323
rfingers 7.12502
rthumb 11.4198 -35.7922
lclavicle 5.64548e-014 4.05521e-014
lhumerus -11.3051 -44.9423 110.66
lradius 27.4383
lwrist 42.1347
lhand -13.7124 67.573
lfingers 7.12502
lthumb -167.594 82.8152
rfemur -29.3121 -1.90743 11.0074
rtibia 31.3379
rfoot -10.7803 -8.97508
rtoes -7.53645
lfemur -28.1437 5.035 -11.0953
ltibia 28.336
lfoot -11.6967 -4.04982
ltoes -18.8026
35
root -7.20239 17.7899 0.335068 -64.479 88.7381 -79.4093
lowerback 2.60899 1.86169 -3.34107
upperback 3.17094 2.48202 3.7476
thorax 1.5008 1.17367 5.7229
lowerneck -15.4093 -0.800174 1.61492
upperneck 37.0338 1.53144 -4.35956
head 15.7101 0.748282 -1.75306
rclavicle 1.19271e-014 4.21423e-014
rhumerus -6.14281 -1.9191 -101.96
rradius 21.43
rwrist -36.4034
rhand -14.8766 -6.10541
rfingers 7.12502
rthumb 11.2837 -35.7819
lclavicle 1.19271e-014 4.21423e-014
lhumerus -11.2953 -44.8691 110.686
lradius 27.3888
lwrist 42.0766
lhand -13.6491 67.4697
lfingers 7.12502
lthumb -167.533 82.9222
rfemur -29.3282 -1.89424 10.936
rtibia 31.3555
rfoot -10.7592 -9.00822
rtoes -7.43886
lfemur -28.1364 5.06526 -11.1694
ltibia 28.3352
lfoot -11.7629 -4.05569
ltoes -19.0538
36
root -7.20259 17.7874 0.335432 -64.6077 88.7057 -79.578
lowerback 2.563 1.86701 -3.35998
upperback 3.16594 2.48994 3.78539
thorax 1.51821 1.17676 5.77487
lowerneck -15.4544 -0.825436 1.57607
upperneck 37.0816 1.51537 -4.36922
head 15.7443 0.735318 -1.75426
rclavicle -1.07344e-014 4.77083e-015
rhumerus -6.16184 -1.94106 -101.917
rradius 21.5263
rwrist -36.5693
rhand -14.8801 -6.20841
rfingers 7.12502
rthumb 11.2804 -35.8851
lclavicle -1.07344e-014 4.77083e-015
lhumerus -11.2876 -44.8909 110.74
lradius 27.3366
lwrist 41.9962
lhand -13.8003 67.4249
lfingers 7.12502
lthumb -167.678 82.9581
rfemur -29.3834 -1.87973 10.977
rtibia 31.381
rfoot -10.7267 -9.07655
rtoes -7.78289
lfemur -28.1619 5.14858 -11.1497
ltibia 28.3158
lfoot -11.8244 -4.10824
ltoes -19.2641
37
root -7.20216 17.7854 0.336739 -62.8719 88.664 -77.8473
lowerback 2.52643 1.88168 -3.3936
upperback 3.18127 2.51007 3.8109
thorax 1.54982 1.18507 5.82228
lowerneck -15.4928 -0.829368 1.57287
upperneck 37.1203 1.52667 -4.39929
head 15.774 0.735799 -1.76569
rclavicle -5.96354e-015 -1.90833e-014
rhumerus -6.242 -1.49014 -101.887
rradius 21.7105
rwrist -36.858
rhand -15.1822 -6.46364
rfingers 7.12502
rthumb 10.9891 -36.156
lclavicle -5.96354e-015 -1.90833e-014
lhumerus -11.3309 -44.7915 110.828
lradius 27.2759
lwrist 41.7125
lhand -13.9567 67.4533
lfingers 7.12502
lthumb -167.829 82.9208
rfemur -29.406 -1.79209 10.9976
rtibia 31.4003
rfoot -10.737 -9.15721
rtoes -8.07002
lfemur -28.1309 5.22961 -11.126
ltibia 28.2975
lfoot -11.8511 -4.12901
ltoes -19.4073
38
root -7.20269 17.7858 0.33546 -62.0688 88.6455 -77.0545
lowerback 2.51288 1.86807 -3.38787
upperback 3.17789 2.49215 3.8147
thorax 1.55623 1.17602 5.82384
lowerneck -15.4764 -0.813778 1.5926
upperneck 37.117 1.56462 -4.45159
head 15.771 0.747481 -1.78499
rclavicle 4.37326e-015 3.18055e-014
rhumerus -6.36457 -0.795002 -101.943
rradius 21.8432
rwrist -36.867
rhand -16.0837 -6.73109
rfingers 7.12502
rthumb 10.1195 -36.4677
lclavicle 4.37326e-015 3.18055e-014
lhumerus -11.411 -44.4427 110.955
lradius 27.1547
lwrist 41.2007
lhand -13.9372 67.5295
lfingers 7.12502
lthumb -167.81 82.8457
rfemur -29.4317 -1.73376 10.9863
rtibia 31.4091
rfoot -10.7827 -9.16663
rtoes -7.75472
lfemur -28.1198 5.19231 -11.105
ltibia 28.2837
lfoot -11.8399 -4.06858
ltoes -19.5851
39
root -7.2038 17.7856 0.334507 -63.7571 88.5843 -78.7613
lowerback 2.51213 1.83984 -3.32214
upperback 3.16035 2.45565 3.84287
thorax 1.54435 1.1596 5.81629
lowerneck -15.4569 -0.806235 1.6076
upperneck 37.1285 1.60232 -4.52295
head 15.775 0.75646 -1.8119
rclavicle -3.02153e-014 -8.11041e-014
rhumerus -6.30329 -1.41042 -101.906
rradius 21.7184
rwrist -36.9412
rhand -15.1705 -6.67232
rfingers 7.12502
rthumb 11.0003 -36.3641
lclavicle -3.02153e-014 -8.11041e-014
lhumerus -11.4789 -44.318 111.054
lradius 27.096
lwrist 40.9362
lhand -14.0004 67.6517
lfingers 7.12502
lthumb -167.871 82.7198
rfemur -29.4509 -1.72521 11.0607
rtibia 31.4039
rfoot -10.7818 -9.16182
rtoes -7.70867
lfemur -28.1379 5.19757 -11.0322
ltibia 28.2659
lfoot -11.8807 -4.03995
ltoes -19.9514
40
root -7.20451 17.7854 0.333741 -65.1489 88.5634 -80.1597
lowerback 2.51056 1.82379 -3.26198
upperback 3.15438 2.43497 3.8345
thorax 1.54413 1.15055 5.77346
lowerneck -15.4861 -0.815533 1.59279
upperneck 37.1927 1.59281 -4.50065
head 15.8136 0.754519 -1.80275
rclavicle 7.95139e-016 9.54166e-015
rhumerus -6.33035 -1.49347 -101.896
rradius 21.781
rwrist -37.127
rhand -14.7701 -6.75828
rfingers 7.12502
rthumb 11.3865 -36.4291
lclavicle 7.95139e-016 9.54166e-015
lhumerus -11.5178 -44.3949 111.065
lradius 27.107
lwrist 40.8816
lhand -14.1046 67.753
lfingers 7.12502
lthumb -167.972 82.6126
rfemur -29.4445 -1.76532 11.1014
rtibia 31.3871
rfoot -10.7767 -9.07938
rtoes -7.37706
lfemur -28.1552 5.27892 -11.027
ltibia 28.2585
lfoot -11.9362 -4.0906
ltoes -20.1949
41
root -7.20474 17.7863 0.331835 -64.6471 88.6012 -79.6305
lowerback 2.53193 1.81697 -3.23707
upperback 3.16169 2.42536 3.78707
thorax 1.54363 1.1462 5.70895
lowerneck -15.4712 -0.818525 1.56831
upperneck 37.1985 1.5687 -4.42802
head 15.8107 0.751054 -1.77125
rclavicle 3.81667e-014 -1.11319e-014
rhumerus -6.32679 -1.76375 -101.926
rradius 21.7654
rwrist -36.9236
rhand -14.6868 -6.86238
rfingers 7.12502
rthumb 11.4668 -36.5288
lclavicle 3.81667e-014 -1.11319e-014
lhumerus -11.5101 -44.3642 111.027
lradius 27.0827
lwrist 40.732
lhand -13.9099 67.6609
lfingers 7.12502
lthumb -167.784 82.7158
rfemur -29.4005 -1.8034 11.0546
rtibia 31.3592
rfoot -10.7961 -8.96724
rtoes -6.72396
lfemur -28.1341 5.28528 -11.0775
ltibia 28.2676
lfoot -11.9185 -4.12361
ltoes -20.0498
42
root -7.20585 17.7866 0.332147 -63.8785 88.6055 -78.8319
lowerback 2.55514 1.81155 -3.23996
upperback 3.17502 2.4178 3.77972
thorax 1.54553 1.14219 5.70254
lowerneck -15.4299 -0.804808 1.56462
upperneck 37.1486 1.58929 -4.43891
head 15.7767 0.756987 -1.77047
rclavicle 5.96354e-015 -3.97569e-015
rhumerus -6.24957 -2.23997 -101.955
rradius 21.6117
rwrist -36.4332
rhand -14.6109 -6.81954
rfingers 7.12502
rthumb 11.54 -36.4818
lclavicle 5.96354e-015 -3.97569e-015
lhumerus -11.4747 -44.2905 111.01
lradius 27.0348
lwrist 40.5979
lhand -13.6332 67.4737
lfingers 7.12502
lthumb -167.517 82.9191
rfemur -29.3532 -1.76329 11.0473
rtibia 31.324
rfoot -10.7133 -9.08452
rtoes -7.46445
lfemur -28.1098 5.29507 -11.0833
ltibia 28.2781
lfoot -11.8606 -4.17315
ltoes -19.7125
43
root -7.20701 17.7875 0.333441 -65.414 88.5249 -80.3957
lowerback 2.51207 1.79558 -3.22131
upperback 3.17991 2.3984 3.85165
thorax 1.57506 1.13196 5.76972
lowerneck -15.4244 -0.789439 1.53857
upperneck 37.1213 1.64516 -4.50736
head 15.7654 0.766824 -1.78499
rclavicle -5.96354e-015 1.90833e-014
rhumerus -6.23602 -2.3439 -101.92
rradius 21.6084
rwrist -36.2846
rhand -14.4909 -6.87337
rfingers 7.12502
rthumb 11.6557 -36.5292
lclavicle -5.96354e-015 1.90833e-014
lhumerus -11.4353 -44.2093 111.028
lradius 27.0126
lwrist 40.571
lhand -13.5729 67.2373
lfingers 7.12502
lthumb -167.459 83.1591
rfemur -29.3589 -1.66337 11.1406
rtibia 31.2847
rfoot -10.6223 -9.29492
rtoes -8.26451
lfemur -28.1586 5.31559 -10.9822
ltibia 28.2848
lfoot -11.8159 -4.23325
ltoes -19.4027
44
root -7.20757 17.7894 0.333343 -65.7278 88.4464 -80.744
lowerback 2.45361 1.78455 -3.2195
upperback 3.18332 2.38537 3.9175
thorax 1.61057 1.12439 5.84055
lowerneck -15.4071 -0.784747 1.49287
upperneck 37.1121 1.68211 -4.54419
head 15.759 0.77105 -1.78587
rclavicle -7.95139e-015 7.15625e-015
rhumerus -6.23335 -2.4297 -101.887
rradius 21.6456
rwrist -36.2087
rhand -14.1863 -7.05281
rfingers 7.12502
rthumb 11.9495 -36.6918
lclavicle -7.95139e-015 7.15625e-015
lhumerus -11.3885 -44.107 111.035
lradius 27.0016
lwrist 40.5412
lhand -13.5886 67.0229
lfingers 7.12502
lthumb -167.474 83.3725
rfemur -29.3844 -1.56779 11.2046
rtibia 31.2517
rfoot -10.6359 -9.33243
rtoes -7.8799
lfemur -28.1976 5.31797 -10.8922
ltibia 28.2942
lfoot -11.8212 -4.2001
ltoes -19.2893
45
root -7.20833 17.7898 0.332642 -64.7173 88.4177 -79.7273
lowerback 2.45189 1.78059 -3.22634
upperback 3.18626 2.38021 3.9328
thorax 1.61441 1.12151 5.86083
lowerneck -15.3825 -0.780316 1.46818
upperneck 37.1143 1.69975 -4.54692
head 15.755 0.775141 -1.77937
rclavicle 4.92986e-014 4.53229e-014
rhumerus -6.24298 -2.46056 -101.901
rradius 21.6849
rwrist -36.2295
rhand -14.0289 -7.18573
rfingers 7.12502
rthumb 12.1013 -36.8158
lclavicle 4.92986e-014 4.53229e-014
lhumerus -11.3625 -44.0385 111.035
lradius 26.9418
lwrist 40.3964
lhand -13.5318 66.9412
lfingers 7.12502
lthumb -167.42 83.4576
rfemur -29.3844 -1.52552 11.2094
rtibia 31.2383
rfoot -10.6745 -9.26814
rtoes -7.54227
lfemur -28.177 5.3493 -10.8794
ltibia 28.2997
lfoot -11.9095 -4.12853
ltoes -19.7318
